<svg width="133" height="20" viewBox="0 0 133 20" fill="none" xmlns="http://www.w3.org/2000/svg">
  <path d="M38.986 4v12h-2.083V6.594h-.034L33.144 16h-1.38l-3.817-9.406h-.025V16h-1.925V4h2.99l3.446 8.894h.05L36.125 4h2.861Zm1.745.911c0-.336.122-.614.363-.842a1.23 1.23 0 0 1 .867-.338c.358 0 .653.116.886.347.233.23.35.508.35.833 0 .33-.12.606-.358.828a1.253 1.253 0 0 1-.88.336c-.348 0-.637-.114-.876-.339a1.095 1.095 0 0 1-.352-.825ZM42.963 16h-2.025V7.397h2.025V16Zm6.142-1.472c.3 0 .633-.07.997-.209a4.116 4.116 0 0 0 1.005-.552v1.883a4.115 4.115 0 0 1-1.1.42 6.034 6.034 0 0 1-1.352.141c-1.267 0-2.298-.4-3.09-1.2-.791-.8-1.188-1.822-1.188-3.067 0-1.383.405-2.522 1.214-3.419.808-.894 1.955-1.344 3.439-1.344.38 0 .763.05 1.15.147.388.097.697.21.925.339v1.941a4.153 4.153 0 0 0-.959-.53 2.787 2.787 0 0 0-1-.19c-.797 0-1.441.26-1.933.779-.492.52-.736 1.22-.736 2.1 0 .87.236 1.547.708 2.033.47.483 1.111.728 1.92.728Zm7.766-7.272c.161 0 .309.01.436.033.128.022.24.05.328.083v2.05a1.765 1.765 0 0 0-.464-.222 2.303 2.303 0 0 0-.741-.106c-.498 0-.917.209-1.259.628-.344.42-.514 1.064-.514 1.934V16h-2.025V7.397h2.025v1.356h.034c.183-.47.464-.836.836-1.1.37-.267.82-.397 1.344-.397Zm.87 4.569c0-1.422.4-2.55 1.205-3.38.803-.831 1.92-1.248 3.347-1.248 1.345 0 2.395.4 3.15 1.2.756.8 1.134 1.88 1.134 3.245 0 1.394-.403 2.505-1.206 3.33-.803.825-1.897 1.24-3.28 1.24-1.334 0-2.392-.393-3.175-1.176-.784-.786-1.175-1.855-1.175-3.211Zm2.11-.07c0 .9.204 1.587.612 2.059.408.475.989.711 1.75.711.736 0 1.297-.236 1.68-.711.387-.475.578-1.178.578-2.108 0-.925-.2-1.625-.597-2.098-.397-.472-.958-.708-1.678-.708-.742 0-1.317.247-1.728.742-.413.494-.616 1.2-.616 2.114Zm9.74-2.1c0 .292.091.517.275.684.183.164.591.372 1.222.622.808.325 1.378.689 1.703 1.092.327.405.489.894.489 1.47 0 .808-.312 1.458-.934 1.95-.622.49-1.464.735-2.522.735-.358 0-.753-.041-1.183-.13a5.243 5.243 0 0 1-1.1-.33v-1.992c.366.255.763.46 1.189.61.425.15.808.226 1.155.226.458 0 .794-.064 1.011-.192.217-.128.328-.344.328-.644a.905.905 0 0 0-.339-.709c-.225-.191-.653-.414-1.283-.666-.747-.314-1.278-.664-1.59-1.056-.31-.392-.469-.886-.469-1.489 0-.775.309-1.414.925-1.911.617-.5 1.417-.75 2.398-.75.3 0 .638.033 1.013.1.373.067.687.153.937.258v1.925a4.32 4.32 0 0 0-.936-.46 3.144 3.144 0 0 0-1.064-.192c-.386 0-.684.075-.9.225a.735.735 0 0 0-.325.625Zm4.56 2.17c0-1.422.403-2.55 1.206-3.38.803-.831 1.92-1.248 3.347-1.248 1.345 0 2.395.4 3.15 1.2.756.8 1.134 1.88 1.134 3.245 0 1.394-.403 2.505-1.206 3.33-.802.825-1.897 1.24-3.28 1.24-1.334 0-2.392-.393-3.175-1.176-.784-.786-1.175-1.855-1.175-3.211Zm2.11-.07c0 .9.202 1.587.61 2.059.409.475.99.711 1.75.711.736 0 1.297-.236 1.683-.711.387-.475.578-1.178.578-2.108 0-.925-.2-1.625-.597-2.098-.4-.472-.958-.708-1.678-.708-.741 0-1.32.247-1.728.742-.413.494-.619 1.2-.619 2.114Zm13.446-2.702h-3.016V16h-2.05V9.053h-1.44V7.397h1.44V6.2c0-.903.294-1.644.883-2.222.589-.578 1.342-.867 2.264-.867.244 0 .464.014.653.039s.358.064.502.114v1.75a2.029 2.029 0 0 0-.352-.142 1.823 1.823 0 0 0-.578-.083c-.425 0-.75.133-.98.397-.229.264-.342.658-.342 1.175V7.4h3.016V5.467l2.034-.62V7.4h2.05v1.656h-2.05v4.025c0 .53.097.902.288 1.122.192.216.495.328.909.328.117 0 .258-.028.422-.084.164-.055.308-.122.43-.2v1.675c-.127.072-.341.14-.641.2a4.377 4.377 0 0 1-.883.092c-.853 0-1.495-.228-1.92-.68-.428-.456-.641-1.14-.641-2.056V9.053h.002Z" fill="#737373"/>
  <path d="M9.506 0H0v9.506h9.506V0Z" fill="#F25022"/>
  <path d="M20 0h-9.506v9.506H20V0Z" fill="#7FBA00"/>
  <path d="M9.506 10.494H0V20h9.506v-9.506Z" fill="#00A4EF"/>
  <path d="M20 10.494h-9.506V20H20v-9.506Z" fill="#FFB900"/>
  <path d="M100.744 7.036c0 .442.153.814.461 1.117.306.305.856.66 1.65 1.066 1.067.553 1.831 1.106 2.292 1.662.464.555.695 1.194.695 1.919 0 1.067-.387 1.9-1.156 2.503-.769.603-1.756.903-2.953.903-.686 0-1.314-.07-1.883-.209-.57-.139-1-.3-1.289-.486v-2.283c.37.341.842.622 1.42.844a4.723 4.723 0 0 0 1.702.336c.609 0 1.092-.116 1.447-.352.359-.234.537-.587.537-1.056 0-.414-.173-.789-.514-1.125-.342-.336-.975-.747-1.895-1.225-.903-.47-1.578-.978-2.022-1.528-.444-.55-.667-1.197-.667-1.944 0-.986.386-1.797 1.156-2.43.769-.634 1.755-.95 2.953-.95.53 0 1.044.05 1.544.146.5.098.867.203 1.1.314v2.184a3.775 3.775 0 0 0-1.192-.62 4.6 4.6 0 0 0-1.419-.225c-.586 0-1.061.13-1.422.395-.364.26-.545.61-.545 1.044Zm10.084 7.492c.116 0 .258-.028.422-.084.164-.055.308-.122.43-.2v1.675c-.127.073-.341.14-.638.2a4.387 4.387 0 0 1-.884.092c-.853 0-1.494-.228-1.919-.683-.428-.456-.639-1.14-.639-2.056v-4.42h-1.414V7.395h1.414V5.461l2.033-.62v2.553h2.05v1.659h-2.05v4.025c0 .53.097.903.289 1.122.189.22.492.328.906.328Zm8.966-3.917c0 1.417 0 2.533.006 3.353.003.817.047 1.497.13 2.039h-2.016l-.1-.92h-.036a2.443 2.443 0 0 1-1.009.792c-.416.18-.939.272-1.569.272-.758 0-1.395-.23-1.903-.691-.511-.462-.767-1.081-.767-1.862 0-.836.328-1.508.984-2.013.655-.506 1.683-.845 3.083-1.017l1.231-.15c0-.57-.134-.972-.403-1.214-.267-.239-.67-.364-1.206-.37-.58 0-1.13.09-1.65.264-.519.175-.916.384-1.197.623v-1.85c.278-.15.711-.303 1.297-.456a7.308 7.308 0 0 1 1.85-.23c1.073 0 1.884.294 2.439.886.559.591.836 1.439.836 2.544Zm-2.872 1.28c-.892.106-1.522.278-1.886.52-.367.239-.547.57-.547.986 0 .359.108.642.322.853.214.211.539.317.975.317.631 0 1.131-.195 1.497-.58.37-.39.556-.876.561-1.462v-.744l-.922.11Zm8.911-4.635c.161 0 .306.01.436.033.128.022.236.05.328.083v2.05a1.752 1.752 0 0 0-.464-.222 2.302 2.302 0 0 0-.741-.106c-.498 0-.917.209-1.259.628-.341.42-.514 1.064-.514 1.934V16h-2.025V7.397h2.025v1.356h.034c.183-.47.464-.836.836-1.1.372-.267.819-.397 1.344-.397Zm6.067 7.272c.117 0 .258-.028.422-.084a2.02 2.02 0 0 0 .431-.2v1.675c-.128.073-.342.14-.639.2a4.387 4.387 0 0 1-.884.092c-.852 0-1.494-.228-1.919-.683-.428-.456-.639-1.14-.639-2.056v-4.42h-1.414V7.395h1.414V5.461l2.033-.62v2.553h2.05v1.659h-2.05v4.025c0 .53.098.903.289 1.122.189.22.492.328.906.328Z" fill="#737373"/>
</svg>
